<svg width="750" height="1334" xmlns="http://www.w3.org/2000/svg">
  <!-- 欢迎页面背景 -->
  <defs>
    <!-- 渐变背景 -->
    <linearGradient id="bgGradient" x1="0%" y1="0%" x2="0%" y2="100%">
      <stop offset="0%" stop-color="#512DA8" />
      <stop offset="100%" stop-color="#311B92" />
    </linearGradient>
    
    <!-- 星星图案 -->
    <pattern id="starsPattern" x="0" y="0" width="200" height="200" patternUnits="userSpaceOnUse">
      <circle cx="10" cy="10" r="1" fill="#FFFFFF" opacity="0.5" />
      <circle cx="50" cy="30" r="1.5" fill="#FFFFFF" opacity="0.7" />
      <circle cx="100" cy="70" r="1" fill="#FFFFFF" opacity="0.4" />
      <circle cx="130" cy="20" r="1.2" fill="#FFFFFF" opacity="0.6" />
      <circle cx="170" cy="90" r="1.7" fill="#FFFFFF" opacity="0.8" />
      <circle cx="40" cy="180" r="1.3" fill="#FFFFFF" opacity="0.5" />
      <circle cx="90" cy="150" r="1" fill="#FFFFFF" opacity="0.7" />
      <circle cx="160" cy="160" r="1.5" fill="#FFFFFF" opacity="0.6" />
    </pattern>
  </defs>
  
  <!-- 背景 -->
  <rect width="750" height="1334" fill="url(#bgGradient)" />
  
  <!-- 星星 -->
  <rect width="750" height="1334" fill="url(#starsPattern)" />
  
  <!-- 装饰圆形 -->
  <circle cx="375" cy="667" r="300" fill="none" stroke="#9575CD" stroke-width="2" opacity="0.3" />
  <circle cx="375" cy="667" r="400" fill="none" stroke="#9575CD" stroke-width="1" opacity="0.2" />
  
  <!-- 装饰线条 -->
  <line x1="0" y1="667" x2="750" y2="667" stroke="#9575CD" stroke-width="1" opacity="0.2" />
  <line x1="375" y1="0" x2="375" y2="1334" stroke="#9575CD" stroke-width="1" opacity="0.2" />
  
  <!-- 塔罗牌装饰元素 -->
  <rect x="325" y="567" width="100" height="200" rx="10" fill="none" stroke="#B39DDB" stroke-width="2" opacity="0.5" />
  <rect x="275" y="617" width="100" height="200" rx="10" fill="none" stroke="#B39DDB" stroke-width="2" opacity="0.3" transform="rotate(-15, 275, 617)" />
  <rect x="375" y="617" width="100" height="200" rx="10" fill="none" stroke="#B39DDB" stroke-width="2" opacity="0.3" transform="rotate(15, 475, 617)" />
</svg>