<svg xmlns="http://www.w3.org/2000/svg" viewBox="0 0 1024 1024" width="24" height="24">
  <path d="M512 17.066667C785.365333 17.066667 1006.933333 238.634667 1006.933333 512S785.365333 1006.933333 512 1006.933333 17.066667 785.365333 17.066667 512 238.634667 17.066667 512 17.066667z m0 51.2C266.922667 68.266667 68.266667 266.922667 68.266667 512c0 245.077333 198.656 443.733333 443.733333 443.733333 245.077333 0 443.733333-198.656 443.733333-443.733333 0-245.077333-198.656-443.733333-443.733333-443.733333z m0 55.466666a388.266667 388.266667 0 1 1 0 776.533334 388.266667 388.266667 0 0 1 0-776.533334zM398.677333 700.8H232.746667a336.853333 336.853333 0 0 0 250.794666 147.072l-84.864-147.072z m392.533334 0h-165.930667l-84.821333 147.072a336.853333 336.853333 0 0 0 250.794666-147.029333z m-225.024 0h-108.373334l54.186667 93.866667 54.186667-93.866667zM206.890667 368.554667A335.786667 335.786667 0 0 0 174.933333 512c0 52.906667 12.202667 103.04 33.962667 147.626667L291.84 515.84 207.317333 369.322667z m610.218666 0l-0.426666 0.768-84.608 146.56 83.029333 143.744a335.36 335.36 0 0 0 33.792-137.130667L849.066667 512a335.786667 335.786667 0 0 0-31.957334-143.445333zM321.450667 567.082667l-47.658667 82.517333h95.317333l-47.658666-82.517333z m274.304-184.96h-167.552L351.018667 515.84l77.226666 133.76h167.509334l77.226666-133.76-77.226666-133.717333z m106.752 184.917333l-47.658667 82.56h95.317333l-47.658666-82.56z m47.658666-184.874667l-95.317333-0.042666 47.658667 82.56 47.658666-82.517334z m-381.056-0.042666H273.792l47.658667 82.517333 47.658666-82.517333z m119.168-206.378667a336.896 336.896 0 0 0-260.693333 155.306667l1.877333-0.128h169.216z m47.445334 0l89.557333 155.178667h169.258667l1.877333 0.128a336.896 336.896 0 0 0-260.693333-155.306667zM512 237.056l-54.229333 93.866667h108.458666L512 237.056z" fill="#7A7E83"/>
</svg>