<svg xmlns="http://www.w3.org/2000/svg" viewBox="0 0 1024 1024" width="24" height="24">
  <path d="M692.705882 232.118714c-182.675576 0-331.294118 148.618541-331.294117 331.294117s148.618541 331.294118 331.294117 331.294118 331.294118-148.618541 331.294118-331.294118-148.618541-331.294118-331.294118-331.294117z m0 602.352941c-149.463843 0-271.058824-121.596988-271.058823-271.058824s121.59498-271.058824 271.058823-271.058823 271.058824 121.596988 271.058824 271.058823c0 149.463843-121.59498 271.058824-271.058824 271.058824z" fill="#673AB7"/>
  <path d="M692.705882 473.05989c-49.820612 0-90.352941 40.532329-90.352941 90.352941s40.532329 90.352941 90.352941 90.352942 90.352941-40.532329 90.352942-90.352942-40.532329-90.352941-90.352942-90.352941z m0 120.470588c-16.606871 0-30.117647-13.510776-30.117647-30.117647s13.510776-30.117647 30.117647-30.117647 30.117647 13.510776 30.117647 30.117647c0 16.608878-13.510776 30.117647-30.117647 30.117647zM662.588235 352.589302h60.235294v60.235294h-60.235294zM777.764141 435.675859l42.586353-42.586353 42.586353 42.586353-42.586353 42.586353zM843.294118 533.295184h60.235294v60.235294h-60.235294zM777.738039 691.202008l42.586353-42.586353 42.586353 42.586353-42.586353 42.586353zM662.588235 714.001067h60.235294v60.235294h-60.235294zM522.207875 691.177914l42.586352-42.586353 42.586353 42.586353-42.586353 42.586353zM481.882353 533.295184h60.235294v60.235294h-60.235294zM522.235984 435.645741l42.586353-42.586353 42.586353 42.586353-42.586353 42.586353zM301.748706 129.863278L180.705882 8.822463 59.663059 129.863278l29.290416 644.375091H0v60.235294h90.352941v180.705882h180.705883v-180.705882h90.352941v-60.235294h-88.953475z m-180.705882 23.806997L180.705882 94.005208l59.663059 59.665067-28.20618 620.566086H149.251012zM210.823529 954.942243H150.588235v-120.470588h60.235294z" fill="#673AB7"/>
</svg>